<?xml version="1.0" encoding="UTF-8"?>
<svg xmlns="http://www.w3.org/2000/svg" version="1.1" viewBox="0 0 398.27 170.38">
  <defs>
    <style>
      path, polygon, .cls-1 {
        fill: #4a4a4a;
      }
    </style>
  </defs>
  <!-- Generator: Adobe Illustrator 28.7.1, SVG Export Plug-In . SVG Version: 1.2.0 Build 142)  -->
  <g>
    <g id="_图层_1" data-name="图层_1">
      <g>
        <g>
          <path d="M5.04,20.11h-2.52c0-.95,0-1.89,0-2.82,0,0,0,0,0,0,.78,0,1.56,0,2.34,0,.14,0,.19.05.19.19,0,.88,0,1.76,0,2.64,0,0,0,0,0,0Z"/>
          <path d="M12.5,28.38h-2.52v-2.82h0c.83,0,1.67,0,2.52,0v2.82h0Z"/>
          <path d="M9.98,25.55h-2.52v-2.72h0c.83,0,1.67,0,2.52,0v2.72h0Z"/>
          <path d="M7.46,22.83h-2.42c0-.92,0-1.82,0-2.72,0,0,0,0,0,0h2.42v2.72h0Z"/>
          <g>
            <path d="M70.07,69.19h4.62c0-.08,0-.16,0-.24,0-4.52,0-9.04,0-13.56,0-.17.09-.22.19-.28.64-.34,1.28-.68,1.93-1.01.71-.37,1.43-.72,2.14-1.08.93-.47,1.87-.93,2.8-1.4,1.09-.55,2.18-1.1,3.28-1.66,1.25-.64,2.5-1.28,3.76-1.92.63-.32,1.27-.63,1.9-.95.07-.03.14-.05.24-.09v2.42h2.32v2.82h2.41v3.22h2.43v4.04h2.52c0,.13,0,.24,0,.35,0,3.02,0,6.03,0,9.05,0,.23-.07.29-.3.29-6.19,0-12.38,0-18.57,0-.08,0-.17,0-.28,0v1.21h-2.11v1.29h-9.29v-2.49s.01-.01.02-.02ZM79.35,66.67h18.72v-1.62h-2.42v-1.19h-2.41v-1.32h-2.92v-1.2h-2.74v-1.23h-2.81v-1.3h-2.81v-1.2h-2.52v-1.18h-2.2v7.95h2.11v2.29Z"/>
            <g>
              <polygon points="2.52 17.29 2.52 17.29 2.52 17.29 2.52 17.29"/>
              <polygon points="12.5 28.38 12.5 28.38 12.5 28.38 12.5 28.38"/>
              <path d="M100.09,1.24c-1.06.41-2.12.82-3.18,1.23-.87.34-1.73.69-2.6,1.03-1.05.41-2.1.82-3.14,1.23-.92.36-1.84.72-2.75,1.08-.95.37-1.91.75-2.86,1.12-1.18.46-2.37.92-3.55,1.38-1.07.42-2.14.84-3.2,1.25-1.89.74-3.78,1.49-5.68,2.23-1.48.58-2.96,1.17-4.44,1.75-.95.37-1.91.74-2.87,1.11-.3.11-.58.15-.89,0-1.12-.54-2.24-1.06-3.37-1.6-1.01-.48-2.02-.96-3.03-1.44-1.03-.49-2.05-.97-3.08-1.45-.77-.36-1.55-.7-2.32-1.07-.79-.37-1.57-.77-2.36-1.14-.85-.4-1.71-.8-2.56-1.19-.35-.16-.71-.29-1.04-.48-.22-.13-.37,0-.53.07-.8.35-1.59.73-2.38,1.09-.8.37-1.61.72-2.41,1.09-.8.37-1.6.75-2.4,1.12-.85.39-1.72.76-2.57,1.15-.86.39-1.71.8-2.56,1.19-.99.46-1.98.92-2.97,1.38-.93.43-1.85.88-2.77,1.31-.09.04-.19.07-.29.07-.8,0-1.6,0-2.39,0-.02,0-.05-.01-.09-.03v-1.79h-5.25v-1.71h-5.24v-1.72h-4.84v-1.71h-5.24v-1.73H0v11.19c.84,0,1.68,0,2.52,0v-6.03h2.63c0,.48,0,.97,0,1.45,0,.42,0,.35.36.35.7,0,1.41,0,2.15,0v1.71h2.52v1.81h2.63v1.71h2.5v1.82h1.21v10.96h-1.59v-2.69h-2.43v2.73h2.42v2.72h1.61c0,.11,0,.2,0,.28,0,5.1,0,10.2,0,15.3,0,3.02,0,6.03,0,9.05,0,.26.09.38.31.49,1.2.57,2.39,1.16,3.58,1.74,1.61.79,3.21,1.58,4.81,2.36,1.73.85,3.46,1.7,5.19,2.55,1.48.73,2.97,1.45,4.45,2.17,1.39.68,2.79,1.36,4.18,2.04,1.69.83,3.38,1.68,5.07,2.51,1.15.57,2.31,1.13,3.46,1.69.09.04.24.07.32.03.55-.25,1.1-.53,1.64-.8,1.19-.59,2.38-1.19,3.58-1.78.76-.38,1.53-.74,2.29-1.11.91-.45,1.82-.9,2.72-1.35.6-.29,1.2-.57,1.79-.88.87-.44,1.72-.9,2.59-1.34.11-.06.25-.09.38-.1.81,0,1.61,0,2.42,0,.42,0,.85.04,1.29.06v2.46h3.44s.01-.01.02-.02v-2.51h-3.42v-2.42h-3.46v-2.14h-3v-14.36h3.03v1.48h2.92v1.4h2.82v1.37h2.92v1.54c1,0,1.97,0,2.93,0,.06,0,.13-.03.19-.05.49-.25.99-.5,1.48-.75.71-.36,1.43-.71,2.14-1.07.95-.49,1.89-.99,2.84-1.48.93-.48,1.87-.94,2.8-1.41.72-.36,1.44-.71,2.16-1.08.9-.46,1.79-.93,2.69-1.39.49-.26.98-.52,1.48-.79-.05-.04-.07-.06-.1-.07-.61-.3-1.22-.6-1.83-.89-.98-.48-1.96-.96-2.95-1.44-.83-.4-1.66-.79-2.48-1.2-1.08-.53-2.15-1.06-3.23-1.59-.82-.4-1.64-.8-2.46-1.2-.15-.07-.21-.17-.21-.34,0-1.34,0-2.67,0-4.01,0-.05,0-.1.01-.17h2.7v-3.23h2.71v-3.33c.82,0,1.61,0,2.4,0,.19,0,.24-.06.24-.24,0-.98,0-1.97,0-2.95,0-.07,0-.15.01-.24.75,0,1.48-.01,2.2,0,.25,0,.31-.08.31-.32-.01-.81,0-1.61,0-2.42,0-.16,0-.31,0-.51h2.53v-3.33h2.63v-3.52h2.51v-3.33h2.62v-3.42h2.42v-3.52h2.62V0c-1.04.41-2.09.83-3.13,1.24ZM71.08,26.4c-1.23.59-2.46,1.16-3.69,1.75-2.35,1.11-4.69,2.23-7.04,3.35-1.59.76-3.19,1.51-4.79,2.27-2.07.99-4.13,1.98-6.2,2.98-.55.27-1.11.53-1.66.81-.06.03-.12.13-.12.2-.01.31,0,.62,0,.93,0,10.03,0,20.06,0,30.09v.48c-.37-.17-.69-.32-1.01-.48-.9-.43-1.79-.87-2.68-1.31-.83-.41-1.65-.82-2.48-1.22-.75-.36-1.51-.7-2.26-1.06-.61-.29-1.22-.6-1.83-.9-.91-.44-1.83-.88-2.74-1.32-.84-.4-1.67-.8-2.51-1.2-.87-.42-1.75-.84-2.62-1.26-.83-.4-1.66-.81-2.48-1.21-.61-.29-1.21-.59-1.82-.88v-9.21l-4.57-2.32c0-1.29,0-2.57,0-3.86,0-6.5,0-13,0-19.51,0-.15,0-.3,0-.48.59.29,1.16.56,1.72.84,1.84.88,3.68,1.76,5.51,2.65,1.65.79,3.29,1.6,4.93,2.39,1.9.92,3.8,1.83,5.71,2.74,1.62.78,3.24,1.55,4.85,2.33,1.29.62,2.58,1.23,3.86,1.86.24.12.43.11.67,0,.79-.39,1.59-.76,2.39-1.14,1.76-.84,3.52-1.69,5.28-2.53,1.43-.69,2.86-1.37,4.29-2.06,1.77-.85,3.54-1.69,5.32-2.55,1.67-.8,3.33-1.61,4.99-2.41.48-.23.96-.47,1.48-.72,0,.4,0,.77,0,1.14,0,.58,0,.59-.5.83Z"/>
            </g>
          </g>
        </g>
        <g>
          <path class="cls-1" d="M25.79,118.68v9.4H.71v-38.17h10.94v28.76h14.13Z"/>
          <path class="cls-1" d="M34.64,113.95l-14.08-24.03h12.92l6.54,13.64h.33l7.09-13.64h12.43l-14.19,23.7v14.46h-11.05v-14.13Z"/>
          <path class="cls-1" d="M62.59,89.92h16.5l7.92,23.92h.33v-23.92h10.67v38.17h-15.23l-9.07-25.52h-.33v25.52h-10.78v-38.17Z"/>
          <path class="cls-1" d="M112.74,108.67l-10.94-18.75h12.76l6.21,12.15h.33l6.1-12.15h12.87l-11,18.42,11.38,19.74h-13.14l-6.38-12.65h-.33l-6.6,12.65h-12.92l11.66-19.41Z"/>
          <path class="cls-1" d="M142.88,127.37v-9.4c2.53.71,6.98,1.43,10.39,1.43,4.56,0,5.17-.77,5.17-3.13,0-1.6-.71-2.53-5.5-3.68-8.36-1.92-10.34-4.56-10.34-11.33,0-9.02,5.83-11.88,14.96-11.88,4.78,0,7.75.66,9.9,1.38v8.74c-1.59-.6-6.38-1.32-9.4-1.32-3.52,0-4.89.82-4.89,2.64s.82,2.14,5.55,3.35c9.51,2.47,10.67,5.5,10.67,12.43,0,7.59-3.68,12.04-15.51,12.04-4.23,0-8.3-.6-11-1.26Z"/>
          <path class="cls-1" d="M208.88,89.92v38.17h-10.94v-15.67h-12.1v15.67h-10.94v-38.17h10.94v13.36h12.1v-13.36h10.94Z"/>
          <path class="cls-1" d="M214.99,115.16v-25.24h10.94v24.47c0,2.48.93,4.89,6.21,4.89s6.32-2.86,6.32-4.89v-24.47h10.89v25.24c0,9.73-6.49,13.47-17.21,13.47s-17.16-2.75-17.16-13.47Z"/>
        </g>
        <g>
          <path class="cls-1" d="M4.63,145.14c2.32-2.2,5.68-3.32,10.04-3.32,2.68,0,4.88.32,6.68.96v6.04c-1.88-.68-3.92-1-6.16-1-4.52,0-6.32,2.04-6.32,8.28s1.8,8.16,6.36,8.16c2.36,0,4.48-.36,6.44-1.04v6.04c-1.76.68-4.28,1.12-6.8,1.12-8.84-.04-13.6-2.92-13.72-14.28,0-5.12,1.16-8.76,3.48-10.96Z"/>
          <path class="cls-1" d="M36.63,141.82c8.56,0,12.84,3.16,12.84,14.28-.12,11.24-4.2,14.2-12.84,14.28-8.56-.08-12.72-3.04-12.84-14.28.12-11.16,4.28-14.24,12.84-14.28ZM42.07,156.1c0-6.52-1-8.52-5.44-8.52s-5.4,2-5.4,8.52c.04,6.6.96,8.24,5.4,8.4,4.52-.16,5.36-1.8,5.44-8.4Z"/>
          <path class="cls-1" d="M63.63,142.22l7.16,18.56h.24v-18.56h6.92v27.75h-9.8l-8-19.76h-.24v19.76h-7v-27.75h10.72Z"/>
          <path class="cls-1" d="M93.95,148.42v21.56h-7.04v-21.56h-6.92v-6.2h20.88v6.2h-6.92Z"/>
          <path class="cls-1" d="M120.87,169.98h-17.96v-27.75h17.6v6.12h-10.52v4.56h9.68v5.88h-9.68v5.08h10.88v6.12Z"/>
          <path class="cls-1" d="M134.67,142.22l7.16,18.56h.24v-18.56h6.92v27.75h-9.8l-8-19.76h-.24v19.76h-7v-27.75h10.72Z"/>
          <path class="cls-1" d="M164.99,148.42v21.56h-7.04v-21.56h-6.92v-6.2h20.88v6.2h-6.92Z"/>
          <path class="cls-1" d="M187.83,142.22l3.52,19.28h.24l3.68-16.84h8.12l3.36,16.84h.24l3.64-19.28h7.36l-6.28,27.75h-8.84l-3.72-16.4h-.24l-3.8,16.4h-8.84l-5.84-27.75h7.4Z"/>
          <path class="cls-1" d="M231.87,141.82c8.56,0,12.84,3.16,12.84,14.28-.12,11.24-4.2,14.2-12.84,14.28-8.56-.08-12.72-3.04-12.84-14.28.12-11.16,4.28-14.24,12.84-14.28ZM237.31,156.1c0-6.52-1-8.52-5.44-8.52s-5.4,2-5.4,8.52c.04,6.6.96,8.24,5.4,8.4,4.52-.16,5.36-1.8,5.44-8.4Z"/>
          <path class="cls-1" d="M257.47,160.3h-2.24v9.68h-7.08v-27.75h10.44c7.36,0,10.72,2.64,10.72,9.04,0,4.52-1.6,7.12-5,8.28l7.6,10.44h-8.36l-6.08-9.68ZM257.39,155.14c3.68,0,4.92-.88,4.92-3.88,0-2.84-1.2-3.56-4.92-3.56h-2.16v7.44h2.16Z"/>
          <path class="cls-1" d="M288.95,169.98l-7.44-11.84h-1.28v11.84h-7.08v-27.75h7.08v10.32h1.28l7.32-10.32h8.2l-9.64,12.84,10.04,14.92h-8.48Z"/>
          <path class="cls-1" d="M297.91,163.3c.92.28,2.12.56,3.56.76,1.48.2,2.84.32,4.12.32,3.48,0,4.28-.64,4.28-2.76,0-1.72-.64-2.4-4.48-3.28-6.2-1.52-7.44-2.96-7.56-8.12,0-5.96,3.64-8.4,10.52-8.4,2.84,0,5.2.32,7.16,1v5.72c-.64-.24-1.68-.44-3.08-.64-1.4-.2-2.68-.32-3.76-.32-2.88,0-4,.64-4,2.4,0,1.56.6,1.92,4.36,2.88,6.88,1.88,7.8,3.48,7.92,8.96,0,5.72-3.12,8.56-11,8.56-2.92,0-5.96-.44-8.04-.96v-6.12Z"/>
          <path class="cls-1" d="M344.31,169.98h-7.08v-11.8h-9.8v11.8h-7.08v-27.75h7.08v10.04h9.8v-10.04h7.08v27.75Z"/>
          <path class="cls-1" d="M360.59,141.82c8.56,0,12.84,3.16,12.84,14.28-.12,11.24-4.2,14.2-12.84,14.28-8.56-.08-12.72-3.04-12.84-14.28.12-11.16,4.28-14.24,12.84-14.28ZM366.03,156.1c0-6.52-1-8.52-5.44-8.52s-5.4,2-5.4,8.52c.04,6.6.96,8.24,5.4,8.4,4.52-.16,5.36-1.8,5.44-8.4Z"/>
          <path class="cls-1" d="M387.07,161.94h-3.12v8.04h-7.08v-27.75h10.2c8.52,0,11.2,2.6,11.2,9.68,0,7.48-3.04,10.04-11.2,10.04ZM386.07,156.3c3.72,0,5-1,5-4.24s-1.32-4.36-5-4.36h-2.12v8.6h2.12Z"/>
        </g>
      </g>
    </g>
  </g>
</svg>